<svg xmlns="http://www.w3.org/2000/svg" viewBox="0 0 193.66 169.3"><defs><style>.cls-1{fill:#727176;}</style></defs><title>Recurso 1@12x</title><g id="Capa_2" data-name="Capa 2"><g id="Capa_1-2" data-name="Capa 1"><path class="cls-1" d="M168.62,81.79l-.87,1-.92.93c-.57.6-1.34,1.26-2.06,1.89l-4.39,4.15L151.5,98c-5.94,5.46-11.88,10.91-17.65,16.62-11.44,11.32-22.7,22.92-34.1,34.28l-2.22,2.2-.68.67-.08.07a.42.42,0,0,1-.58,0l-.06-.07,0-.05,0,0h0l-.06-.06-4.38-4.45L74.1,129.35c-11.73-11.81-23.91-23.23-35.65-35L29.7,85.41c-.72-.75-1.43-1.37-2.13-2s-1.21-1.24-1.76-1.91-1.13-1.31-1.64-2-1-1.39-1.5-2.11A40.64,40.64,0,0,1,16,58.12l-.1-1.28,0-1.28A24.5,24.5,0,0,1,16,53c.06-.85.07-1.71.14-2.57l.39-2.53.18-1.27L17,45.38l.62-2.49.87-2.41.43-1.21.55-1.16,1.09-2.32,1.33-2.2.65-1.11.77-1,1.53-2.07,1.73-1.91c.29-.32.57-.65.86-1l1-.86c.64-.57,1.26-1.17,1.91-1.73l2.07-1.54c.34-.25.67-.53,1-.76L34.5,21c.73-.44,1.45-.91,2.2-1.33L39,18.51c.39-.18.77-.4,1.17-.55l1.2-.43c.81-.29,1.6-.62,2.41-.89L46.28,16c.42-.11.83-.24,1.25-.33l1.27-.19,2.54-.41A39.76,39.76,0,0,1,71.5,18.15a37.45,37.45,0,0,1,10.09,6.54c.73.7,1.5,1.35,2.16,2.11l.63.66c.48.48.83.93,1.23,1.4l2.22,3.07c1.49,2,2.93,4.3,4.38,6.52L96.45,45c3.91-5.74,8.24-12.88,12.55-17.66a40.94,40.94,0,0,1,6.51-5.47,40.2,40.2,0,0,1,21.28-7,8.53,8.53,0,0,1,1.43,0l1.43.05a19.4,19.4,0,0,1,2.85.19l2.84.37c.93.19,1.85.45,2.78.66a37.08,37.08,0,0,1,10.54,4.46,40.31,40.31,0,0,1,13.75,14.11,16.37,16.37,0,0,1,1.18,2.18c.36.74.76,1.47,1.11,2.22l.9,2.3.47,1.15c.13.38.22.78.34,1.18l.71,2.36c.24.78.33,1.6.51,2.4s.39,1.6.47,2.41.19,1.63.28,2.44c.14,1.12.51.52.39-.63l-.25-2.39-.45-2.36A42.22,42.22,0,0,0,177,43.26a17,17,0,0,0-.75-2.29l-.81-2.28-1-2.19a18.27,18.27,0,0,0-1.08-2.17,41,41,0,0,0-13-14.44A40.29,40.29,0,0,0,141.2,13.4a42.39,42.39,0,0,0-19.79,3.36,43.81,43.81,0,0,0-10.79,6.71c-.77.74-1.62,1.39-2.34,2.18l-.56.57-.55.57c-.21.21-.38.42-.57.64-.73.86-1.41,1.85-2.11,2.77s-1.42,1.82-2.09,2.87l-2,3L96.45,42,91.3,34.14l-1.32-2-1.35-1.84c-.92-1.2-1.77-2.52-2.75-3.58l-1.75-1.82-1.55-1.43c-.5-.48-1.08-.89-1.61-1.34a18.86,18.86,0,0,0-1.68-1.26,40.06,40.06,0,0,0-19.64-7.27l-1.32-.13-1.32,0-1.33,0c-.44,0-.88.05-1.32.07l-2.65.15c-.88,0-1.74.26-2.61.37l-1.31.2-.65.11-.64.17L44,15.16a20.25,20.25,0,0,0-2.49.84c-.82.33-1.67.55-2.46.95C26.06,22.56,16.32,35.16,14.59,49.23A41.53,41.53,0,0,0,17,70.08a42.65,42.65,0,0,0,5.11,9.31,41.74,41.74,0,0,0,3.42,4.1l.93,1,1.07,1c.71.64,1.44,1.4,2.17,2.13l34.62,35c5.78,5.83,11.66,11.57,17.56,17.29l8.84,8.57,4.34,4.22a2.09,2.09,0,0,0,1.17.71,1.45,1.45,0,0,0,1.32-.59l.12-.14.07-.07.17-.18,1.2-1.23,2.38-2.44L111,139q9.49-9.81,19.07-19.56c6.42-6.51,13.08-12.75,19.71-19q5-4.69,9.9-9.45l4.88-4.8L165.73,85l.6-.55.51-.54,1-1.07.95-1.13C169.47,81,169.32,81,168.62,81.79Z"/><path class="cls-1" d="M183,65.61A50.92,50.92,0,0,1,174,83.27c-.52.65-1,1.31-1.59,1.92s-1.1,1.25-1.69,1.83c-1.12,1.23-2.48,2.28-3.67,3.54q-3.66,3.66-7.35,7.31C148,109.39,136.13,120.44,124.47,132c-5.82,5.77-11.54,11.69-17.27,17.61l-4.3,4.43-2.07,2.13a15.52,15.52,0,0,1-1.71,1.63,4.72,4.72,0,0,1-4.51.49,5.34,5.34,0,0,1-1.9-1.39L90.84,155c-11.46-11.69-22.25-23.81-33.75-35.48-5.87-6-11.84-11.84-17.81-17.72l-9-8.83-4.46-4.42a45.36,45.36,0,0,1-4.21-4.23,42,42,0,0,1-6.41-9.76,42.49,42.49,0,0,1-3.57-11l-.26-1.43-.17-1.45c-.14-1-.18-1.92-.24-2.89s0-1.93-.07-2.9.13-1.93.19-2.89a45.82,45.82,0,0,1,.75-5.73c.14-.95.48-1.87.7-2.8a22,22,0,0,1,.81-2.77l1-2.71A9.86,9.86,0,0,1,15,36.62l.63-1.3a46.13,46.13,0,0,1,2.78-5.07,45.54,45.54,0,0,1,7.47-8.86l1.06-1c.35-.33.76-.6,1.13-.91l2.31-1.78c.8-.55,1.64-1,2.46-1.56L34,15.36c.43-.24.87-.44,1.3-.66l2.62-1.3,2.73-1L42,11.86c.46-.14.94-.25,1.41-.37l2.83-.73A47.62,47.62,0,0,1,57.89,10,43.45,43.45,0,0,1,69.25,12.3a44.58,44.58,0,0,1,10.31,5.15c.8.54,1.56,1.13,2.35,1.68L84.14,21l2.12,2,1,1,.7.72c.24.29.51.55.74.87a134.77,134.77,0,0,1,7.76,11l2.46-3.72,2.62-3.77,2.72-3.54c.23-.3.48-.55.72-.82l.68-.7.95-1a44.12,44.12,0,0,1,29.46-12.51c.54,0,1.08-.06,1.62,0l1.62.08,1.62.08a10.81,10.81,0,0,1,1.61.13l3.21.47a10.58,10.58,0,0,1,1.58.34l1.58.39,1.57.39c.52.16,1,.36,1.53.53,1,.39,2.05.69,3,1.13L158,15.43a10.87,10.87,0,0,1,1.42.78l1.4.83A44.33,44.33,0,0,1,178,36.17c.53,1.07.81.9.28-.19A45.51,45.51,0,0,0,142.49,9.61a44.3,44.3,0,0,0-22.8,3.44A46.66,46.66,0,0,0,105.4,22.9l-1.19,1.24c-.48.49-.9,1.08-1.34,1.63-.88,1.11-1.78,2.2-2.6,3.41-1.36,1.89-2.59,3.76-3.82,5.62l-2.11-3.24-2.22-3.22c-.75-1.08-1.56-2-2.33-3a24.73,24.73,0,0,0-2.23-2.53A45.84,45.84,0,0,0,70,11.54,45.19,45.19,0,0,0,59.73,9.28c-1-.13-1.94-.16-2.92-.2-.49,0-1-.05-1.47-.05l-1.46.06-2.94.12c-1,.1-1.93.26-2.9.39a45.59,45.59,0,0,0-5.75,1.22c-.95.24-1.85.63-2.78.93a24.76,24.76,0,0,0-2.75,1.06l-2.67,1.25c-.89.4-1.7,1-2.56,1.45a44.6,44.6,0,0,0-4.88,3.32,45.28,45.28,0,0,0-8.24,8.47A43.93,43.93,0,0,0,9.87,48.92a19.27,19.27,0,0,0-.22,2.93l-.11,2.94A49.75,49.75,0,0,0,10,60.64a47.81,47.81,0,0,0,3,11.28,46.67,46.67,0,0,0,9.4,14.72l1,1.06,1.09,1c.74.68,1.44,1.43,2.15,2.16,5.7,5.88,11.38,11.75,17.13,17.58l34.63,35q4.35,4.35,8.67,8.7l4.34,4.3c.63.59,1.2,1.24,1.87,1.77a5.17,5.17,0,0,0,7-.67l4-4.13,8.65-8.77c12.71-12.85,25.55-25.4,38.46-38.06l9.35-9.23,4.7-4.66,2.36-2.34c.78-.78,1.63-1.47,2.41-2.23a50,50,0,0,0,13.14-21.69,3.36,3.36,0,0,0,.19-1.84C183.44,64.42,183.25,64.69,183,65.61Z"/><path class="cls-1" d="M96.17,162.42a7.59,7.59,0,0,1-3.39-1,12.35,12.35,0,0,1-2.72-2.29l-4.41-4.47L77,146c-5.77-5.81-11.54-11.62-17.2-17.49-11.33-11.72-22.93-23.31-34.34-35l-2.14-2.18c-.74-.72-1.51-1.38-2.22-2.13S19.66,87.7,19,86.9s-1.33-1.58-2-2.39a48.13,48.13,0,0,1-6.19-10.66A48.71,48.71,0,0,1,7.31,49.73a48,48,0,0,1,3-11.89,46.4,46.4,0,0,1,2.57-5.54A9,9,0,0,1,13.61,31l.82-1.29a26,26,0,0,1,1.7-2.53A49.35,49.35,0,0,1,34.64,11.8,47.68,47.68,0,0,1,46,8,52.49,52.49,0,0,1,58,7.2,48.1,48.1,0,0,1,80.7,14.51a49.15,49.15,0,0,1,8.5,6.78,54.54,54.54,0,0,1,7.25,9.11c.65-1,1.28-2,2-3s1.36-2,2.11-2.86,1.45-1.84,2.27-2.67,1.5-1.62,2.33-2.35a47.66,47.66,0,0,1,10.74-7.67,48.43,48.43,0,0,1,23.39-5.49l3,.09,3,.39a45.39,45.39,0,0,1,6,1.21c1,.22,1.95.64,2.92.95l1.45.5.73.25.7.32a45.52,45.52,0,0,1,5.48,2.79,47.51,47.51,0,0,1,9.76,7.54,51.47,51.47,0,0,1,4,4.69c.6.84,1.27,1.64,1.83,2.5l1.61,2.65a15.05,15.05,0,0,1,.78,1.34l.68,1.4c.44.93.92,1.85,1.33,2.8l1.07,2.91.53,1.46.39,1.5.78,3c.19,1,.33,2,.5,3.06a49.24,49.24,0,0,1,.54,6.18c.06,1.06.41,1,.35-.07a46.2,46.2,0,0,0-.54-6.22c-.17-1-.31-2.06-.51-3.08l-.8-3-.4-1.51L184,38.53l-1.1-2.92c-.43-.94-.91-1.87-1.36-2.8l-.69-1.4c-.23-.46-.54-.89-.8-1.33l-1.64-2.65c-.58-.86-1.24-1.66-1.86-2.5a51.91,51.91,0,0,0-4.08-4.69,50.44,50.44,0,0,0-9.79-7.61,47.79,47.79,0,0,0-5.49-2.89,10,10,0,0,0-1.42-.61l-1.46-.54-1.46-.54a9.71,9.71,0,0,0-1.47-.48,46.71,46.71,0,0,0-6.06-1.41c-1-.16-2-.36-3.07-.48l-3.11-.19a47.47,47.47,0,0,0-24.18,5.15,51.49,51.49,0,0,0-11.09,7.72c-.84.72-1.66,1.61-2.38,2.33s-1.22,1.37-1.83,2S98.52,24.17,98,24.88s-1,1.49-1.51,2.23l-1.27-2c-.44-.64-.91-1.25-1.37-1.87s-1-1.19-1.46-1.78-1-1.06-1.69-1.83A49.3,49.3,0,0,0,33.53,10a50,50,0,0,0-24,64.67,48.76,48.76,0,0,0,6.48,11l1,1.25,1.05,1.2c.68.82,1.45,1.55,2.18,2.32s1.52,1.42,2.27,2.14l2.14,2.18c11.45,11.57,23.13,22.94,34.61,34.48C65,135,70.81,140.68,76.64,146.39L85.36,155l4.47,4.44a12.63,12.63,0,0,0,2.8,2.32,8.15,8.15,0,0,0,3.47,1c.58,0,.88-.08.88-.14S96.71,162.45,96.17,162.42Z"/><path class="cls-1" d="M165.06,98.41c-7.62,6.78-15.34,15.81-22.75,23.24-8.83,8.83-18.48,16.81-27.21,25.77-.17.17.47.56.64.38,8.26-8.31,16.61-15.93,24.94-24.06,8.12-7.92,15.95-15.4,24.13-23.14C166,99.46,166.28,97.32,165.06,98.41Z"/><path class="cls-1" d="M192.66,55.93a64.55,64.55,0,0,1-5.83,23.22,55.34,55.34,0,0,1-6.4,10.45,53.34,53.34,0,0,1-4,4.59c-.7.73-1.35,1.29-2,1.94s-1.23,1.23-1.85,1.84l-34,34L120,150.4l-9.23,9.24L108.45,162l-1.58,1.57a19.29,19.29,0,0,1-2.23,2,13.52,13.52,0,0,1-16.24.06,17.45,17.45,0,0,1-2.22-2L84.57,162,80,157.29l-9-9.4c-6-6.29-11.9-12.59-17.95-18.83s-12.34-12.52-18.58-18.73l-19-19A54.84,54.84,0,0,1,1.43,57.84c0-1.24-.11-2.47-.07-3.7l.19-3.7A28.41,28.41,0,0,1,2,46.76c.22-1.21.33-2.45.64-3.65l.94-3.58.24-.9c.09-.29.21-.58.31-.87L4.75,36a51.62,51.62,0,0,1,3.06-6.73c.58-1.08,1.28-2.1,1.92-3.15l1-1.55c.37-.5.75-1,1.12-1.46.77-1,1.5-1.95,2.29-2.88l2.53-2.66a28.84,28.84,0,0,1,2.69-2.49l1.38-1.19.7-.6.74-.53,3-2.12c1-.69,2.09-1.24,3.13-1.87l1.59-.9c.53-.29,1.09-.52,1.64-.78L34.83,5.6l3.44-1.2C38.84,4.22,39.4,4,40,3.83l1.76-.43c1.18-.27,2.35-.63,3.54-.82L48.9,2a52.77,52.77,0,0,1,28.4,4.3,53.83,53.83,0,0,1,12.29,7.74c.93.78,1.81,1.62,2.71,2.43l1.9,1.95a22.11,22.11,0,0,1,1.73,2.16l.52.76a28.28,28.28,0,0,1,2.24-3.23l.14-.17.09-.1.22-.23.87-.95c.59-.63,1.23-1.2,1.85-1.81s1.25-1.18,1.92-1.72,1.3-1.14,2-1.65a51.56,51.56,0,0,1,18.55-9.19,55.84,55.84,0,0,1,22-1.22,52.9,52.9,0,0,1,20.86,7.68A51.28,51.28,0,0,1,183,24.69a57,57,0,0,1,8,20.9c.09.53.51.4.43-.15l-.3-1.84-.47-1.8c-.31-1.2-.61-2.41-1-3.6a58.92,58.92,0,0,0-2.77-6.91,53.45,53.45,0,0,0-8.09-12.43l-2.5-2.76c-.88-.87-1.82-1.68-2.73-2.53-.46-.41-.91-.83-1.38-1.24l-1.49-1.12c-1-.73-2-1.52-3-2.2a57.38,57.38,0,0,0-6.48-3.67l-1.68-.8-.84-.4-.88-.33-3.5-1.28c-1.17-.43-2.4-.66-3.6-1a25.06,25.06,0,0,0-3.64-.77L143.4.24c-1.23-.13-2.47-.13-3.71-.2A52.14,52.14,0,0,0,125,1.61,55.8,55.8,0,0,0,99.55,16L98,17.57l-.57.66c-.36.45-.7.92-1,1.38a17.71,17.71,0,0,0-1.7-2.33l-.83-.88c-.33-.33-.63-.69-1-1l-2.06-1.9C89.45,12.29,88,11.09,86.47,10A53.32,53.32,0,0,0,76.68,4.5,55.3,55.3,0,0,0,65.94,1.14,54.55,54.55,0,0,0,51.41.21c-.61,0-1.22,0-1.82.11L47.78.57c-1.21.18-2.42.31-3.62.54L40.6,2c-.59.16-1.2.26-1.77.47l-1.74.61A53.84,53.84,0,0,0,24,9.56l-3,2.17c-1,.71-1.86,1.59-2.8,2.38A58.23,58.23,0,0,0,13,19.37,55.14,55.14,0,0,0,.76,46.17L.47,48l-.15.92-.06.93L0,53.6a53.17,53.17,0,0,0,.27,7.46,57,57,0,0,0,3.6,14.52A57.09,57.09,0,0,0,16.13,94.33c.44.48.85.84,1.26,1.24l1.23,1.18,2.24,2.32c6,6.2,12,12.4,18,18.55C51,129.91,63.4,142,75.55,154.26l9.27,9.4c.75.74,1.48,1.53,2.28,2.21a13.92,13.92,0,0,0,2.55,1.72,14.61,14.61,0,0,0,17-2.39L126,146.07c13-13,25.67-26.24,38.62-39.34l9.19-9.35c.73-.78,1.65-1.58,2.47-2.38s1.81-1.81,2.64-2.77a58,58,0,0,0,11.6-19.78,61.77,61.77,0,0,0,3.1-14.9C193.79,55,192.84,53.42,192.66,55.93Z"/></g></g></svg>